<?xml version="1.0" standalone="no"?>
<!DOCTYPE svg PUBLIC "-//W3C//DTD SVG 20010904//EN"
 "http://www.w3.org/TR/2001/REC-SVG-20010904/DTD/svg10.dtd">
<svg version="1.0" xmlns="http://www.w3.org/2000/svg"
 width="859.000000pt" height="519.000000pt" viewBox="0 0 859.000000 519.000000"
 preserveAspectRatio="xMidYMid meet">

<g transform="translate(0.000000,519.000000) scale(0.100000,-0.100000)"
fill="#000000" stroke="none">
<path d="M3880 5169 c-1232 -97 -2472 -659 -3281 -1485 -290 -297 -487 -596
-565 -859 -36 -121 -39 -289 -6 -413 168 -641 1031 -1454 2032 -1912 841 -386
1717 -545 2635 -480 456 33 941 134 1370 286 449 158 907 393 1272 652 640
454 1105 1006 1225 1455 31 115 30 280 -1 397 -134 504 -664 1101 -1380 1554
-711 450 -1559 731 -2416 801 -201 16 -701 18 -885 4z m736 -463 c939 -159
1634 -910 1735 -1875 15 -142 7 -440 -16 -571 -88 -517 -340 -969 -719 -1289
-482 -406 -1106 -565 -1729 -440 -771 155 -1406 778 -1595 1564 -51 212 -57
263 -57 515 0 251 7 313 55 515 142 596 531 1099 1066 1377 228 118 462 187
764 222 74 9 409 -4 496 -18z"/>
<path d="M4140 3944 c-120 -21 -157 -30 -240 -56 -452 -143 -794 -527 -893
-1003 -30 -142 -29 -418 1 -555 116 -530 507 -926 1022 -1037 120 -26 410 -26
530 0 446 96 814 418 967 845 61 171 76 264 77 467 0 151 -4 197 -23 285 -114
526 -487 905 -1021 1035 -63 16 -363 29 -420 19z"/>
</g>
</svg>
