<?xml version="1.0" standalone="no"?>
<!DOCTYPE svg PUBLIC "-//W3C//DTD SVG 20010904//EN"
 "http://www.w3.org/TR/2001/REC-SVG-20010904/DTD/svg10.dtd">
<svg version="1.0" xmlns="http://www.w3.org/2000/svg"
 width="981.000000pt" height="592.000000pt" viewBox="0 0 981.000000 592.000000"
 preserveAspectRatio="xMidYMid meet">

<g transform="translate(0.000000,592.000000) scale(0.100000,-0.100000)"
fill="#000000" stroke="none">
<path d="M4520 5903 c-253 -15 -669 -77 -940 -139 -643 -148 -1329 -429 -1847
-755 l-92 -58 -578 280 c-329 160 -600 285 -629 292 -71 15 -148 -3 -208 -49
-40 -30 -57 -57 -128 -199 -93 -186 -103 -234 -73 -326 33 -97 57 -113 503
-328 221 -107 402 -196 402 -198 0 -2 -76 -78 -168 -170 -480 -479 -742 -934
-742 -1293 0 -486 502 -1174 1275 -1751 799 -595 1787 -1002 2780 -1143 355
-51 900 -71 1251 -47 967 67 1924 366 2723 851 l101 61 590 -285 c325 -157
610 -290 634 -296 27 -6 62 -6 88 -1 120 24 154 59 253 262 75 153 79 166 79
228 0 79 -33 153 -88 197 -19 16 -216 116 -438 223 -222 107 -404 195 -405
196 -1 0 89 93 200 205 214 216 331 354 451 535 245 366 333 662 277 933 -134
647 -864 1440 -1831 1990 -786 447 -1673 712 -2615 782 -126 9 -688 11 -825 3z
m720 -549 c763 -108 1428 -597 1780 -1309 255 -515 320 -1090 188 -1660 -11
-49 -23 -95 -27 -101 -4 -8 -138 53 -386 172 -208 102 -383 188 -388 193 -4 4
-3 46 3 92 18 129 14 336 -9 469 -113 649 -606 1154 -1236 1266 -120 21 -355
24 -465 5 -358 -60 -695 -249 -918 -513 l-31 -38 -383 185 c-210 102 -386 189
-390 193 -19 19 199 290 341 423 396 372 888 594 1416 639 128 11 371 3 505
-16z m-2192 -1953 l379 -183 -4 -197 c-5 -168 -2 -213 15 -317 28 -160 71
-293 143 -439 147 -300 380 -534 674 -680 196 -97 322 -133 547 -156 244 -25
533 29 766 143 155 76 326 200 435 317 26 28 51 51 55 51 11 0 782 -374 782
-380 0 -16 -144 -193 -232 -285 -407 -426 -930 -677 -1513 -726 -508 -43
-1053 104 -1480 399 -544 376 -896 933 -1016 1609 -27 150 -37 489 -20 655 11
107 55 351 67 370 7 11 -36 31 402 -181z"/>
</g>
</svg>
